<svg xmlns="http://www.w3.org/2000/svg" version="1.1" xmlns:xlink="http://www.w3.org/1999/xlink" xmlns:svgjs="http://svgjs.dev/svgjs" width="1000" height="305" viewBox="0 0 1000 305"><g transform="matrix(1,0,0,1,-0.6060606060606233,0.15686239614547048)"><svg viewBox="0 0 396 121" data-background-color="#ffffff" preserveAspectRatio="xMidYMid meet" height="305" width="1000" xmlns="http://www.w3.org/2000/svg" xmlns:xlink="http://www.w3.org/1999/xlink"><g id="tight-bounds" transform="matrix(1,0,0,1,0.2400000000000091,-0.06223065552001117)"><svg viewBox="0 0 395.52 121.12446131104" height="121.12446131104" width="395.52"><g><svg viewBox="0 0 623.9061238889685 191.06566839783144" height="121.12446131104" width="395.52"><g><rect width="10.15991452475605" height="191.06566839783144" x="422.11663488156034" y="0" fill="#8d021f" opacity="1" stroke-width="0" stroke="transparent" fill-opacity="1" class="rect-o-0" data-fill-palette-color="primary" rx="1%" id="o-0" data-palette-color="#8d021f"></rect></g><g transform="matrix(1,0,0,1,0,15.922139033152618)"><svg viewBox="0 0 395.52 159.2213903315262" height="159.2213903315262" width="395.52"><g><svg viewBox="0 0 395.52 159.2213903315262" height="159.2213903315262" width="395.52"><g><svg viewBox="0 0 395.52 112.66132466477042" height="112.66132466477042" width="395.52"><g transform="matrix(1,0,0,1,0,0)"><svg width="395.52" viewBox="4.949999809265137 -35.04999923706055 123.04000091552734 35.04999923706055" height="112.66132466477042" data-palette-color="#8d021f"><path d="M9.25-0.05L9.25-1.5 28.95-1.5 28.95-31.45 17.7-7.35 6.45-31.5 6.45 0 4.95-0.05 4.95-35.05 6.45-35.05 17.7-10.9 28.95-35 30.45-35.05 30.45 0 9.25-0.05ZM41.25 0L41.25-1.5 59.65-1.5 49.05-30.65 37.9 0 36.3 0 49.05-35.05 61.8 0 41.25 0ZM85.6-19.8L85.6-18.3 70.75-18.3 86.05-33.5 69.15-33.5 69.15 0 67.65 0 67.65-35 89.7-35 74.4-19.8 85.6-19.8ZM96.64-35L96.64 0 95.14 0 95.14-35 96.64-35ZM107.44 0L107.44-1.5 125.84-1.5 115.24-30.65 104.09 0 102.49 0 115.24-35.05 127.99 0 107.44 0Z" opacity="1" transform="matrix(1,0,0,1,0,0)" fill="#8d021f" class="undefined-text-0" data-fill-palette-color="primary" id="text-0"></path></svg></g></svg></g><g transform="matrix(1,0,0,1,94.9248,139.25795954633077)"><svg viewBox="0 0 300.5952 19.96343078519543" height="19.96343078519543" width="300.5952"><g transform="matrix(1,0,0,1,0,0)"><svg width="300.5952" viewBox="5 -28.75 433.6199951171875 28.799999237060547" height="19.96343078519543" data-palette-color="#ffdc00"><path d="M5-28.75L5-28.75 21-28.75 21-22.85 11.3-22.85 11.3-17.2 21-17.2 21-11.5 11.3-11.5 11.3-5.65 20.8-5.65 20.8 0 5 0 5-28.75ZM23.45-5.65L23.45-5.65 23.45 0 39.45 0 39.45-5.65 23.45-5.65ZM39.45-22.85L39.45-22.85 39.45-28.75 23.25-28.75 23.25-22.85 39.45-22.85ZM31.35-11.5L31.35-11.5 31.35-17.2 23.25-17.2 23.25-11.5 31.35-11.5ZM44.45 0.05L44.45-28.75 50.85-28.75 50.85 0.05 44.45 0.05ZM59.85-22L66.15-22 66.15 0.05 59.85 0.05 59.85-22ZM66.05-28.7L66.05-24.05 59.85-24.05 59.85-28.7 66.05-28.7ZM75.14-0.05L75.14-22 81.39-22 81.39-19.85 89.09-22 89.09-17.3 81.39-17.3 81.39-0.05 75.14-0.05ZM111.89-18.55L106.19-22 104.04-22 97.64-19.25 91.09-22 91.09-17.3 91.09-0.05 97.64-0.05 97.64-17.3 105.64-17.3 105.64-0.05 111.89-0.05 111.89-18.55ZM120.39-22L126.69-22 126.69 0.05 120.39 0.05 120.39-22ZM126.59-28.7L126.59-24.05 120.39-24.05 120.39-28.7 126.59-28.7ZM135.69-0.05L135.69-22 142.04-22 142.04-19.85 149.44-22 149.44-17.3 142.04-17.3 142.04-0.05 135.69-0.05ZM165.64-0.05L165.64-18.55 159.74-22 151.84-22 151.84-17.3 159.39-17.3 159.39-0.05 165.64-0.05ZM174.14-3.4L174.14-9.75 179.84-13.2 188.04-13.2 188.04-9.35 180.49-9.35 180.49-5.25 188.04-5.25 188.04 0.05 179.84 0.05 174.14-3.4ZM180.49-15.05L174.14-15.05 174.14-18.5 179.84-22 188.04-22 188.04-17.3 180.49-17.3 180.49-15.05ZM204.14 0.05L204.14-18.5 198.44-22 190.24-22 190.24-17.3 197.79-17.3 197.79-13.2 190.24-13.2 190.24-9.35 197.79-9.35 197.79-5.25 190.44-5.25 190.44 0.05 204.14 0.05ZM222.13-17.2L222.13-21.85 229.63-21.85 229.63-17.2 222.13-17.2ZM229.63-7.5L235.93-7.5 235.93-3.45 230.23 0 222.13 0 222.13-5.25 229.63-5.25 229.63-7.5ZM209.13-19.35L219.88-25.3 219.88-5.25 219.88 0 213.63-3.45 213.63-17.2 209.13-17.15 209.13-19.35ZM271.63-18.55L271.63-12.85 265.73-9.4 257.73-9.4 257.73-13.25 265.28-13.25 265.28-17.35 257.73-17.35 257.73-22.05 265.73-22.05 271.63-18.55ZM265.08-6.95L271.63-6.95 271.63-3.45 265.73 0 257.73 0 257.73-5.3 265.08-5.3 265.08-6.95ZM241.43-18.55L241.43-3.45 247.33 0 255.28 0 255.28-5.3 247.73-5.3 247.73-9.4 255.28-9.4 255.28-13.25 247.73-13.25 247.73-17.35 255.28-17.35 255.28-22.05 247.33-22.05 241.43-18.55ZM304.13-17.2L304.13-21.85 311.63-21.85 311.63-17.2 304.13-17.2ZM311.63-7.5L317.93-7.5 317.93-3.45 312.23 0 304.13 0 304.13-5.25 311.63-5.25 311.63-7.5ZM291.13-19.35L301.88-25.3 301.88-5.25 301.88 0 295.63-3.45 295.63-17.2 291.13-17.15 291.13-19.35ZM324.42 0.05L324.42-28.75 330.57-28.75 330.57-22 338.17-22 338.17-17.2 330.57-17.2 330.57 0.05 324.42 0.05ZM354.17 0.05L354.17-18.55 348.52-22 340.37-22 340.37-17.2 347.87-17.2 347.87 0.05 354.17 0.05ZM392.87-18.55L392.87-12.85 386.97-9.4 378.97-9.4 378.97-13.25 386.52-13.25 386.52-17.35 378.97-17.35 378.97-22.05 386.97-22.05 392.87-18.55ZM386.32-6.95L392.87-6.95 392.87-3.45 386.97 0 378.97 0 378.97-5.3 386.32-5.3 386.32-6.95ZM362.67-18.55L362.67-3.45 368.57 0 376.52 0 376.52-5.3 368.97-5.3 368.97-9.4 376.52-9.4 376.52-13.25 368.97-13.25 368.97-17.35 376.52-17.35 376.52-22.05 368.57-22.05 362.67-18.55ZM401.87-0.05L401.87-22 408.12-22 408.12-19.85 415.82-22 415.82-17.3 408.12-17.3 408.12-0.05 401.87-0.05ZM438.62-18.55L432.92-22 430.77-22 424.37-19.25 417.82-22 417.82-17.3 417.82-0.05 424.37-0.05 424.37-17.3 432.37-17.3 432.37-0.05 438.62-0.05 438.62-18.55Z" opacity="1" transform="matrix(1,0,0,1,0,0)" fill="#ffdc00" class="undefined-text-1" data-fill-palette-color="secondary" id="text-1"></path></svg></g></svg></g></svg></g></svg></g><g transform="matrix(1,0,0,1,458.87318428787677,13.016348659602244)"><svg viewBox="0 0 165.03293960109178 165.03297107862696" height="165.03297107862696" width="165.03293960109178"><g><svg xmlns="http://www.w3.org/2000/svg" viewBox="2 1.9999874830245972 60 60.0000114440918" x="0" y="0" height="165.03297107862696" width="165.03293960109178" class="icon-icon-0" data-fill-palette-color="accent" id="icon-0"><g fill="#8d021f" data-fill-palette-color="accent"><rect x="14" y="24" width="12" height="2" fill="#8d021f" data-fill-palette-color="accent"></rect><rect x="14" y="24" width="12" height="2" fill="#8d021f" data-fill-palette-color="accent"></rect><path d="M8 18h2V29a1 1 0 0 0 1 1H29a1 1 0 0 0 1-1V18h2a2 2 0 0 0 2-2V14a2 2 0 0 0-2-2H29.905L29 2.9A1 1 0 0 0 28 2H25a1 1 0 0 0-0.316 0.051L21.838 3H18.123l-3.88-0.97A1 1 0 0 0 14 2H12a1 1 0 0 0-0.995 0.9L10.1 12H8a2 2 0 0 0-2 2v2A2 2 0 0 0 8 18ZM28 28H12V18h6v4h2V18h8ZM12.905 4h0.972l3.88 0.97A1 1 0 0 0 18 5h4a1 1 0 0 0 0.316-0.051L25.162 4H27.1l0.8 8H12.105ZM8 14H32v2H8Z" fill="#8d021f" data-fill-palette-color="accent"></path><path d="M8 18h2V29a1 1 0 0 0 1 1H29a1 1 0 0 0 1-1V18h2a2 2 0 0 0 2-2V14a2 2 0 0 0-2-2H29.905L29 2.9A1 1 0 0 0 28 2H25a1 1 0 0 0-0.316 0.051L21.838 3H18.123l-3.88-0.97A1 1 0 0 0 14 2H12a1 1 0 0 0-0.995 0.9L10.1 12H8a2 2 0 0 0-2 2v2A2 2 0 0 0 8 18ZM28 28H12V18h6v4h2V18h8ZM12.905 4h0.972l3.88 0.97A1 1 0 0 0 18 5h4a1 1 0 0 0 0.316-0.051L25.162 4H27.1l0.8 8H12.105ZM8 14H32v2H8Z" fill="#8d021f" data-fill-palette-color="accent"></path><rect x="19" y="56" width="2" height="2" fill="#8d021f" data-fill-palette-color="accent"></rect><rect x="19" y="56" width="2" height="2" fill="#8d021f" data-fill-palette-color="accent"></rect><path d="M43 44H38V36a4 4 0 0 0-4-4H6a4 4 0 0 0-4 4V61a1 1 0 0 0 1 1H31a1 1 0 0 0 1-1V52H43a1 1 0 0 0 1-1V45A1 1 0 0 0 43 44ZM24.589 38.836L24.105 34h2.418ZM22.1 34l0.885 8.856L20 50.308l-2.98-7.452L17.905 34Zm-6.2 0l-0.484 4.836L13.477 34ZM4 36a2 2 0 0 1 2-2H8V60H4ZM30 60H10V34h1.323l3.748 9.372 4 10a1 1 0 0 0 1.858 0l4-10L28.677 34H30ZM42 50H32V34h2a2 2 0 0 1 2 2v9a1 1 0 0 0 1 1h5Z" fill="#8d021f" data-fill-palette-color="accent"></path><path d="M43 44H38V36a4 4 0 0 0-4-4H6a4 4 0 0 0-4 4V61a1 1 0 0 0 1 1H31a1 1 0 0 0 1-1V52H43a1 1 0 0 0 1-1V45A1 1 0 0 0 43 44ZM24.589 38.836L24.105 34h2.418ZM22.1 34l0.885 8.856L20 50.308l-2.98-7.452L17.905 34Zm-6.2 0l-0.484 4.836L13.477 34ZM4 36a2 2 0 0 1 2-2H8V60H4ZM30 60H10V34h1.323l3.748 9.372 4 10a1 1 0 0 0 1.858 0l4-10L28.677 34H30ZM42 50H32V34h2a2 2 0 0 1 2 2v9a1 1 0 0 0 1 1h5Z" fill="#8d021f" data-fill-palette-color="accent"></path><path d="M61 40H46a1 1 0 0 0-1 1v4a0.981 0.981 0 0 0 0.062 0.307A3.936 3.936 0 0 0 45 50.618V55a1 1 0 0 0 1 1h4a1 1 0 0 0 1-1V50.618A3.905 3.905 0 0 0 51.444 46H61a1 1 0 0 0 1-1V41A1 1 0 0 0 61 40ZM47 54V51.858a3.592 3.592 0 0 0 2 0V54Zm3-6a2 2 0 1 1-2-2A2 2 0 0 1 50 48Zm10-4H47V42H60Z" fill="#8d021f" data-fill-palette-color="accent"></path><path d="M61 40H46a1 1 0 0 0-1 1v4a0.981 0.981 0 0 0 0.062 0.307A3.936 3.936 0 0 0 45 50.618V55a1 1 0 0 0 1 1h4a1 1 0 0 0 1-1V50.618A3.905 3.905 0 0 0 51.444 46H61a1 1 0 0 0 1-1V41A1 1 0 0 0 61 40ZM47 54V51.858a3.592 3.592 0 0 0 2 0V54Zm3-6a2 2 0 1 1-2-2A2 2 0 0 1 50 48Zm10-4H47V42H60Z" fill="#8d021f" data-fill-palette-color="accent"></path></g></svg></g></svg></g></svg></g><defs></defs></svg><rect width="395.52" height="121.12446131104" fill="none" stroke="none" visibility="hidden"></rect></g></svg></g></svg>